<!-- Generated by IcoMoon.io -->
<svg version="1.1" xmlns="http://www.w3.org/2000/svg" width="512" height="512" viewBox="0 0 512 512">
<title></title>
<g id="icomoon-ignore">
</g>
<path fill="#000" d="M490.666 256c0-64.79-26.282-123.499-68.736-165.93s-101.142-68.736-165.93-68.736-123.499 26.282-165.93 68.736-68.736 101.142-68.736 165.93 26.282 123.499 68.736 165.93 101.142 68.736 165.93 68.736 123.499-26.282 165.93-68.736 68.736-101.142 68.736-165.93zM448 256c0 53.034-21.462 100.992-56.235 135.765s-82.731 56.235-135.766 56.235-100.992-21.462-135.766-56.235-56.234-82.731-56.234-135.766 21.462-100.992 56.234-135.766 82.731-56.234 135.766-56.234 100.992 21.462 135.766 56.234 56.235 82.731 56.235 135.766zM277.334 341.334v-85.334c0-11.776-9.558-21.334-21.334-21.334s-21.334 9.558-21.334 21.334v85.334c0 11.776 9.558 21.334 21.334 21.334s21.334-9.558 21.334-21.334zM256 192c11.776 0 21.334-9.558 21.334-21.334s-9.558-21.334-21.334-21.334-21.334 9.558-21.334 21.334 9.558 21.334 21.334 21.334z"></path>
</svg>
